<svg width="70" height="64" viewBox="0 0 70 64" fill="none" xmlns="http://www.w3.org/2000/svg">
<path d="M0 35.5944C0 36.3802 0.261937 37.0205 0.814916 37.5443C1.36789 38.0682 2.06639 38.301 2.91041 38.301H7.82901C8.61483 38.301 9.28422 38.0391 9.8372 37.5152C10.3902 36.9914 10.6812 36.3511 10.6812 35.5944C10.6812 34.7503 10.4193 34.0518 9.8663 33.528C9.31332 33.0041 8.64393 32.7131 7.85812 32.7131H2.91041C2.06639 32.7131 1.36789 32.975 0.814916 33.528C0.261937 34.0227 0 34.7212 0 35.5944ZM5.15143 53.5807C5.15143 56.4038 6.17008 58.8486 8.23647 60.915C10.3029 62.9813 12.7185 64 15.5416 64H35.507C38.3302 64 40.7458 62.9813 42.754 60.9441C44.7622 58.9068 45.7808 56.462 45.7808 53.5807C45.7808 52.1837 45.5771 50.9904 45.1696 50.0009C47.5853 48.4584 49.5061 46.392 50.9031 43.8308C52.3001 41.2697 53.0277 38.5048 53.0277 35.5653C53.0277 33.2078 52.5621 30.9377 51.6307 28.784C50.6994 26.6303 49.4479 24.7676 47.9054 23.2251C46.3629 21.6826 44.5002 20.4311 42.3465 19.4998C40.1928 18.5684 37.9518 18.1028 35.5944 18.1028C32.422 18.1028 29.4825 18.8886 26.8049 20.4602C24.1273 22.0318 22.0027 24.1564 20.4602 26.8049C18.9177 29.4825 18.161 32.3929 18.161 35.5653V36.5548C15.2506 38.2137 13.3297 40.6294 12.3984 43.8017C10.1865 44.5002 8.4402 45.7226 7.13051 47.498C5.82083 49.2733 5.15143 51.3106 5.15143 53.5807ZM9.69168 12.3693C9.69168 13.1842 9.95362 13.8536 10.4484 14.3192L15.1342 19.2378C16.502 20.2856 17.8699 20.2856 19.2378 19.2378C19.7908 18.6849 20.0527 18.0155 20.0527 17.2005C20.0527 16.4147 19.7908 15.7453 19.2378 15.1633L14.4357 10.3611C13.8245 9.80809 13.126 9.51705 12.3984 9.51705C11.5834 9.51705 10.9141 9.77899 10.4193 10.332C9.92451 10.8849 9.69168 11.5543 9.69168 12.3693ZM10.9141 53.5807C10.9141 52.3583 11.2924 51.3106 12.0782 50.4375C12.864 49.5643 13.8536 49.0696 15.0468 48.9532L16.8513 48.7203C17.2297 48.7203 17.4334 48.4875 17.4334 48.0509L17.6953 46.4211C17.899 44.7331 18.5975 43.3361 19.8199 42.2301C21.0423 41.095 22.4684 40.5421 24.1273 40.5421C25.8154 40.5421 27.2997 41.095 28.5221 42.2301C29.7735 43.3652 30.5011 44.7622 30.7049 46.4211L30.9377 48.3129C31.1123 48.7494 31.3452 48.9823 31.6362 48.9823H35.4779C36.7294 48.9823 37.8063 49.4479 38.7376 50.3502C39.6689 51.2524 40.1055 52.3292 40.1055 53.6098C40.1055 54.9195 39.6398 56.0255 38.7376 56.9568C37.8354 57.8881 36.7294 58.3538 35.4779 58.3538H15.5416C14.2319 58.3538 13.126 57.8881 12.2528 56.9568C11.3506 56.0255 10.9141 54.8904 10.9141 53.5807ZM23.7781 34.9832C23.9818 31.8108 25.2042 29.1332 27.4743 26.9504C29.7153 24.7967 32.4511 23.6908 35.5944 23.6908C38.8249 23.6908 41.5898 24.8549 43.8599 27.1542C46.1301 29.4534 47.2651 32.2765 47.2651 35.5653C47.2651 37.6025 46.7704 39.4943 45.7808 41.2406C44.7913 42.9868 43.4525 44.3838 41.7644 45.4607C40.0473 44.0346 38.0682 43.3361 35.8563 43.3361C35.0123 40.7749 33.4989 38.7667 31.3743 37.2533C29.2497 35.7399 26.834 34.9832 24.1564 34.9832H23.7781ZM32.7713 9.51705C32.7713 10.3029 33.0623 11.0014 33.6153 11.5543C34.1683 12.1073 34.8377 12.3984 35.6235 12.3984C36.4384 12.3984 37.1078 12.1073 37.6608 11.5543C38.2137 11.0014 38.5048 10.332 38.5048 9.51705V2.70669C38.5048 1.94998 38.2137 1.30969 37.6608 0.785812C37.1078 0.261937 36.4384 0 35.6235 0C34.8377 0 34.1683 0.261937 33.6153 0.785812C33.0623 1.30969 32.7713 1.94998 32.7713 2.70669V9.51705ZM51.1651 53.8427C51.1651 54.6285 51.427 55.2979 51.9509 55.8799L56.724 60.5948C57.9463 61.8172 59.3142 61.8172 60.8277 60.5948C61.3515 60.1 61.5844 59.4598 61.5844 58.6157C61.5844 57.8299 61.3224 57.1896 60.8277 56.6658L55.909 51.8054C55.3852 51.3106 54.7158 51.0778 53.93 51.0778C53.1151 51.0778 52.4748 51.3397 51.9509 51.8636C51.427 52.3874 51.1651 53.0568 51.1651 53.8427ZM51.1651 17.1423C51.1651 17.9573 51.427 18.6558 51.9509 19.2378C52.4748 19.7617 53.1442 20.0236 53.93 20.0236C54.7158 20.0236 55.3852 19.7617 55.909 19.2378L60.8277 14.3192C61.3515 13.8245 61.5844 13.1842 61.5844 12.3693C61.5844 11.5543 61.2933 10.8849 60.7403 10.3611C60.1874 9.8372 59.518 9.54616 58.703 9.54616C57.9463 9.54616 57.2769 9.8372 56.724 10.3902L51.9509 15.1342C51.427 15.658 51.1651 16.3274 51.1651 17.1423ZM58.6739 35.5944C58.6739 36.3802 58.9359 37.0205 59.4889 37.5443C60.0418 38.0682 60.7403 38.301 61.5844 38.301H66.503C67.2888 38.301 67.9582 38.0391 68.5111 37.5152C69.0641 36.9914 69.3552 36.3511 69.3552 35.5944C69.3552 34.7503 69.0932 34.0518 68.5402 33.528C67.9873 33.0041 67.3179 32.7131 66.5321 32.7131H61.6135C60.7694 32.7131 60.0709 32.975 59.518 33.528C58.965 34.0227 58.6739 34.7212 58.6739 35.5944Z" fill="#6A28FC"/>
</svg>
