<svg width="83" height="80" viewBox="0 0 83 80" fill="none" xmlns="http://www.w3.org/2000/svg">
<path d="M0 37.7667C0 33.1805 1.43569 29.1127 4.30708 25.5234C7.17846 21.9342 10.8076 19.661 15.1944 18.6241C16.4307 13.2004 19.2622 8.7338 23.6092 5.22433C27.9561 1.71486 32.9412 0 38.5643 0C44.0678 0 48.9332 1.71486 53.2403 5.10469C57.5474 8.49452 60.339 12.8814 61.6152 18.2253H62.8913C66.4407 18.2253 69.7507 19.1027 72.7817 20.8175C75.8126 22.5324 78.2453 24.9252 80 27.9163C81.7547 30.9073 82.672 34.2173 82.672 37.7667C82.672 41.2762 81.8345 44.5065 80.1595 47.4975C78.4846 50.4885 76.1715 52.8814 73.2602 54.676C70.349 56.4706 67.1585 57.4277 63.6889 57.5075C63.1705 57.5075 62.8913 57.2682 62.8913 56.8295V51.5254C62.8913 51.0469 63.1705 50.8076 63.6889 50.8076C67.0788 50.6481 69.99 49.2921 72.3829 46.7398C74.7757 44.1874 75.9721 41.1964 75.9721 37.7268C75.9721 34.2572 74.656 31.2662 72.0638 28.7139C69.4716 26.1615 66.4008 24.8853 62.8514 24.8853H56.4307C55.9521 24.8853 55.7129 24.6461 55.7129 24.2074L55.3938 21.8943C54.9551 17.5872 53.0808 13.9581 49.8504 11.0867C46.5803 8.17547 42.8315 6.73978 38.4845 6.73978C34.1376 6.73978 30.3091 8.17547 27.1186 11.0867C23.8883 13.998 22.0937 17.5872 21.6949 21.8943L21.4158 24.008C21.4158 24.4865 21.1366 24.7657 20.6181 24.7657L18.5045 24.8853C15.1944 25.2841 12.4028 26.7198 10.1296 29.1525C7.85643 31.5852 6.73978 34.4566 6.73978 37.7667C6.73978 41.2363 7.93619 44.2273 10.329 46.7797C12.7218 49.332 15.6331 50.6879 19.0229 50.8475C19.4616 50.8475 19.7009 51.0867 19.7009 51.5653V56.8694C19.7009 57.3081 19.4616 57.5474 19.0229 57.5474C13.679 57.3081 9.17248 55.2742 5.46361 51.4457C1.75474 47.6171 0 43.0708 0 37.7667ZM21.336 64.4467C21.336 64.2871 21.3759 64.008 21.4955 63.649L27.996 40.6381C28.2353 39.8804 28.674 39.2822 29.2722 38.8834C29.8704 38.4845 30.5085 38.2851 31.1067 38.2851C31.3858 38.2851 31.7049 38.325 32.0638 38.4048C33.0209 38.5643 33.7388 39.0828 34.2173 39.8804C34.6959 40.678 34.8156 41.5553 34.5364 42.5523L28.0359 65.4038C27.5573 67.1186 26.4407 67.9561 24.7657 67.9561C24.6062 67.9561 24.4865 67.9162 24.327 67.8764C24.0877 67.7966 23.9681 67.7567 23.9282 67.7567C23.0508 67.5174 22.4128 67.0788 21.9741 66.4407C21.5354 65.7627 21.336 65.1246 21.336 64.4467ZM31.7846 75.653L41.5155 40.678C41.675 39.9202 42.0738 39.322 42.7119 38.9232C43.35 38.5244 43.988 38.325 44.666 38.325C45.0249 38.325 45.3839 38.3649 45.7428 38.4447C46.6201 38.6839 47.2582 39.2024 47.6969 40C48.1356 40.7976 48.2154 41.6351 47.9761 42.5523L38.2851 77.5673C38.1256 78.2453 37.7667 78.8036 37.1286 79.2822C36.4905 79.7607 35.8524 80 35.0947 80C34.7358 80 34.3769 79.9202 34.0977 79.8006C33.3001 79.6012 32.6221 79.0827 32.0239 78.2453C31.5852 77.5274 31.5055 76.6899 31.7846 75.653ZM48.2552 64.5264C48.2552 64.3669 48.2951 64.0877 48.4148 63.6092L54.9153 40.5982C55.1545 39.8405 55.5533 39.2423 56.1117 38.8435C56.7099 38.4447 57.3081 38.2453 57.9462 38.2453C58.2652 38.2453 58.6241 38.2851 58.9831 38.3649C59.8205 38.6042 60.4187 39.003 60.8175 39.6012C61.2164 40.1994 61.4158 40.8375 61.4158 41.4756C61.4158 41.5952 61.3759 41.7946 61.336 42.0339C61.2961 42.2732 61.2562 42.4327 61.2562 42.5125L54.7557 65.3639C54.5962 66.1216 54.2373 66.7597 53.6391 67.1984C53.0409 67.6371 52.3629 67.8764 51.6052 67.8764L50.6481 67.677C49.8505 67.4377 49.2522 67.0389 48.8136 66.4008C48.4546 65.8026 48.2552 65.1645 48.2552 64.5264Z" fill="#6A28FC"/>
</svg>
