<svg width="67" height="64" viewBox="0 0 67 64" fill="none" xmlns="http://www.w3.org/2000/svg">
<path d="M0 30.2134C0 26.5444 1.14855 23.2901 3.44566 20.4187C5.74277 17.5474 8.64606 15.7288 12.1555 14.8993C13.1446 10.5603 15.4098 6.98704 18.8873 4.17946C22.3649 1.37188 26.3529 0 30.8514 0C35.2542 0 39.1466 1.37188 42.5922 4.08375C46.0379 6.79561 48.2712 10.3051 49.2921 14.5803H50.3131C53.1525 14.5803 55.8006 15.2822 58.2253 16.654C60.65 18.0259 62.5962 19.9402 64 22.333C65.4038 24.7258 66.1376 27.3739 66.1376 30.2134C66.1376 33.0209 65.4676 35.6052 64.1276 37.998C62.7876 40.3908 60.9372 42.3051 58.6082 43.7408C56.2792 45.1765 53.7268 45.9422 50.9511 46.006C50.5364 46.006 50.3131 45.8146 50.3131 45.4636V41.2203C50.3131 40.8375 50.5364 40.6461 50.9511 40.6461C53.663 40.5184 55.992 39.4337 57.9063 37.3918C59.8205 35.3499 60.7777 32.9571 60.7777 30.1815C60.7777 27.4058 59.7248 25.013 57.651 22.9711C55.5773 20.9292 53.1206 19.9083 50.2812 19.9083H45.1446C44.7617 19.9083 44.5703 19.7169 44.5703 19.3659L44.3151 17.5155C43.9641 14.0698 42.4646 11.1665 39.8804 8.86939C37.2642 6.54038 34.2652 5.39182 30.7876 5.39182C27.3101 5.39182 24.2473 6.54038 21.6949 8.86939C19.1107 11.1984 17.675 14.0698 17.3559 17.5155L17.1326 19.2064C17.1326 19.5892 16.9093 19.8126 16.4945 19.8126L14.8036 19.9083C12.1555 20.2273 9.92223 21.3759 8.10369 23.322C6.28514 25.2682 5.39182 27.5653 5.39182 30.2134C5.39182 32.989 6.34895 35.3819 8.26321 37.4237C10.1775 39.4656 12.5065 40.5504 15.2183 40.678C15.5693 40.678 15.7607 40.8694 15.7607 41.2522V45.4955C15.7607 45.8465 15.5693 46.0379 15.2183 46.0379C10.9432 45.8465 7.33799 44.2193 4.37089 41.1565C1.40379 38.0937 0 34.4566 0 30.2134ZM17.0688 51.5573C17.0688 51.4297 17.1007 51.2064 17.1964 50.9192L22.3968 32.5105C22.5882 31.9043 22.9392 31.4257 23.4177 31.1067C23.8963 30.7876 24.4068 30.6281 24.8853 30.6281C25.1087 30.6281 25.3639 30.66 25.651 30.7238C26.4167 30.8514 26.991 31.2662 27.3739 31.9043C27.7567 32.5424 27.8524 33.2443 27.6291 34.0419L22.4287 52.323C22.0459 53.6949 21.1525 54.3649 19.8126 54.3649C19.6849 54.3649 19.5892 54.333 19.4616 54.3011C19.2702 54.2373 19.1745 54.2054 19.1426 54.2054C18.4407 54.014 17.9302 53.663 17.5793 53.1525C17.2283 52.6102 17.0688 52.0997 17.0688 51.5573ZM25.4277 60.5224L33.2124 32.5424C33.34 31.9362 33.659 31.4576 34.1695 31.1386C34.68 30.8195 35.1904 30.66 35.7328 30.66C36.0199 30.66 36.3071 30.6919 36.5942 30.7557C37.2961 30.9472 37.8066 31.3619 38.1575 32C38.5085 32.6381 38.5723 33.3081 38.3809 34.0419L30.6281 62.0538C30.5005 62.5962 30.2134 63.0429 29.7029 63.4257C29.1924 63.8086 28.6819 64 28.0758 64C27.7886 64 27.5015 63.9362 27.2782 63.8405C26.6401 63.681 26.0977 63.2662 25.6191 62.5962C25.2682 62.0219 25.2044 61.3519 25.4277 60.5224ZM38.6042 51.6211C38.6042 51.4935 38.6361 51.2702 38.7318 50.8873L43.9322 32.4786C44.1236 31.8724 44.4427 31.3938 44.8893 31.0748C45.3679 30.7557 45.8465 30.5962 46.3569 30.5962C46.6122 30.5962 46.8993 30.6281 47.1864 30.6919C47.8564 30.8833 48.335 31.2024 48.654 31.681C48.9731 32.1595 49.1326 32.67 49.1326 33.1805C49.1326 33.2762 49.1007 33.4357 49.0688 33.6271C49.0369 33.8185 49.005 33.9462 49.005 34.01L43.8046 52.2911C43.677 52.8973 43.3898 53.4078 42.9113 53.7587C42.4327 54.1097 41.8903 54.3011 41.2841 54.3011L40.5184 54.1416C39.8804 53.9501 39.4018 53.6311 39.0508 53.1206C38.7637 52.6421 38.6042 52.1316 38.6042 51.6211Z" fill="#6A28FC"/>
</svg>
