<svg width="41" height="21" viewBox="0 0 41 21" fill="none" xmlns="http://www.w3.org/2000/svg">
<path d="M6.63598 20.4988H-8.93102e-05V1.056e-05H6.84618C8.85468 1.056e-05 10.5796 0.410386 12.0209 1.23114C13.4622 2.04522 14.5666 3.21629 15.3339 4.74435C16.108 6.26575 16.495 8.09075 16.495 10.2194C16.495 12.3547 16.1047 14.1897 15.3239 15.7244C14.5499 17.2591 13.4289 18.4402 11.9609 19.2676C10.4928 20.0884 8.71789 20.4988 6.63598 20.4988ZM3.09274 17.7963H6.46583C8.02726 17.7963 9.32511 17.5027 10.3594 16.9155C11.3937 16.3216 12.1677 15.4642 12.6815 14.3431C13.1953 13.2154 13.4522 11.8408 13.4522 10.2194C13.4522 8.61123 13.1953 7.24664 12.6815 6.12562C12.1744 5.00459 11.417 4.15381 10.4094 3.57328C9.40185 2.99275 8.1507 2.70248 6.656 2.70248H3.09274V17.7963ZM20.1008 20.4988V5.1247H22.9734V7.62699H23.1636C23.4839 6.77955 24.0077 6.11894 24.735 5.64518C25.4624 5.16474 26.3332 4.92452 27.3474 4.92452C28.375 4.92452 29.2358 5.16474 29.9298 5.64518C30.6304 6.12562 31.1476 6.78622 31.4812 7.62699H31.6414C32.0084 6.80624 32.5922 6.15231 33.393 5.6652C34.1937 5.17141 35.1479 4.92452 36.2556 4.92452C37.6502 4.92452 38.7879 5.36158 39.6687 6.23572C40.5562 7.10985 40.9999 8.42772 40.9999 10.1893V20.4988H38.0072V10.4696C38.0072 9.42864 37.7236 8.67462 37.1564 8.20752C36.5892 7.74043 35.9119 7.50688 35.1246 7.50688C34.1503 7.50688 33.393 7.80716 32.8525 8.40771C32.312 9.00158 32.0417 9.76562 32.0417 10.6998V20.4988H29.059V10.2794C29.059 9.44532 28.7988 8.77471 28.2783 8.26758C27.7578 7.76045 27.0805 7.50688 26.2464 7.50688C25.6792 7.50688 25.1554 7.65702 24.675 7.95729C24.2012 8.2509 23.8175 8.66127 23.5239 9.18842C23.237 9.71557 23.0935 10.3261 23.0935 11.0201V20.4988H20.1008Z" fill="#2A2A2A"/>
</svg>
