<svg width="66" height="64" viewBox="0 0 66 64" fill="none" xmlns="http://www.w3.org/2000/svg">
<path d="M0 30.0466C0 33.5722 1.04814 36.7166 3.14442 39.4799C5.24069 42.2432 7.94045 44.1489 11.2754 45.1653L9.21092 50.5012C9.11563 50.9459 9.27444 51.2 9.65558 51.2H16.4208L13.1176 63.206H14.0069L26.6164 46.6263C26.7434 46.4992 26.7434 46.3404 26.6799 46.1816C26.6164 46.0228 26.4576 45.9593 26.2352 45.9593H19.3112L27.1881 31.2218C27.3787 30.7772 27.2516 30.5548 26.7434 30.5548H17.4055C17.1196 30.5548 16.8655 30.7136 16.7067 30.9995L13.2447 40.1151C10.9896 39.5434 9.11563 38.3047 7.62283 36.4308C6.13002 34.5568 5.3995 32.4288 5.3995 30.0466C5.3995 27.4104 6.28883 25.1236 8.06749 23.1861C9.84615 21.2486 12.0695 20.137 14.7375 19.8194L16.3891 19.597C16.802 19.597 17.0243 19.4064 17.0243 19.0571L17.2466 17.4055C17.5643 13.9752 18.9935 11.0849 21.5662 8.76625C24.139 6.44764 27.1563 5.27246 30.6184 5.27246C34.0804 5.27246 37.0978 6.44764 39.6705 8.76625C42.2749 11.0849 43.736 13.9752 44.1171 17.4055L44.3077 19.2476C44.3077 19.6288 44.4983 19.8194 44.9112 19.8194H50.0248C52.9151 19.8194 55.3608 20.8357 57.3935 22.8367C59.4263 24.8377 60.4427 27.2516 60.4427 30.0784C60.4427 32.7782 59.4898 35.1285 57.6159 37.0978C55.7419 39.067 53.4233 40.1469 50.66 40.3692C50.2471 40.3692 50.0248 40.5598 50.0248 40.9727V45.3241C50.0248 45.6734 50.2471 45.864 50.66 45.864C52.7246 45.8005 54.6938 45.3241 56.5677 44.4665C58.4417 43.6089 60.0615 42.4655 61.3955 41.068C62.7295 39.6705 63.8094 38.0189 64.6035 36.0814C65.3975 34.1757 65.8104 32.1747 65.8104 30.1102C65.8104 27.2516 65.1116 24.6154 63.6824 22.2015C62.2531 19.7876 60.3474 17.8819 57.9335 16.4844C55.5196 15.0868 52.8834 14.3881 50.0566 14.3881H49.0402C47.9921 10.1638 45.7687 6.70174 42.3385 4.03375C38.9082 1.36576 35.0332 0 30.6501 0C26.1717 0 22.1697 1.39752 18.7077 4.16079C15.2457 6.92407 13.0223 10.4814 12.0377 14.8328C8.54392 15.6586 5.6536 17.469 3.36675 20.3275C1.0799 23.1861 0 26.394 0 30.0466ZM25.9176 61.3638C25.9176 61.872 26.0764 62.3484 26.394 62.8248C26.7117 63.3012 27.2198 63.6506 27.8551 63.8412C28.2997 63.9365 28.5538 64 28.6491 64C28.935 64 29.3161 63.9047 29.8561 63.6824C30.5231 63.3965 30.9677 62.8248 31.1901 62.0308L32.0794 58.6958C32.27 57.997 32.2064 57.33 31.8253 56.6948C31.4442 56.0595 30.9042 55.6466 30.1419 55.4243C29.4432 55.2337 28.7762 55.2973 28.1409 55.6784C27.5057 56.0595 27.061 56.5995 26.8387 57.3618L25.9811 60.538C25.9494 61.0779 25.9176 61.3638 25.9176 61.3638ZM30.1737 46.2134C30.1737 46.6581 30.3325 47.1345 30.6501 47.6109C30.9677 48.0873 31.4442 48.4367 32.0794 48.6591C32.7782 48.8814 33.4769 48.8496 34.1122 48.5002C34.7474 48.1509 35.1603 47.6109 35.3826 46.8486L36.3355 43.5454C36.526 42.8466 36.4308 42.1796 36.0814 41.5444C35.7002 40.9092 35.1285 40.4645 34.398 40.2422C33.6675 40.0516 33.0005 40.1151 32.3335 40.4963C31.6665 40.8774 31.2536 41.4174 31.0313 42.1479L30.269 45.3558C30.2055 45.8958 30.1737 46.1816 30.1737 46.2134ZM39.1305 51.4541C39.1305 51.994 39.2893 52.534 39.6387 53.0739C39.9881 53.6139 40.4963 53.9633 41.1315 54.1856C41.195 54.1856 41.3221 54.2174 41.5126 54.2491C41.6715 54.2809 41.7985 54.3126 41.8938 54.3126C42.3067 54.3126 42.7196 54.2491 43.1007 54.0586C43.7042 53.8362 44.1489 53.2327 44.403 52.2481L45.197 49.0402C45.4193 48.3097 45.3558 47.6109 45.0064 46.9439C44.6571 46.2769 44.1171 45.8322 43.4184 45.6099C42.6243 45.4193 41.8938 45.5146 41.2586 45.864C40.6233 46.2452 40.2104 46.8169 40.0834 47.5474L39.2258 50.8189C39.1623 51.0094 39.1305 51.2318 39.1305 51.4541ZM43.4501 36.2402C43.4184 36.7484 43.5772 37.2248 43.9265 37.733C44.2759 38.2412 44.7841 38.6223 45.4829 38.9399C45.737 39.067 45.9911 39.1305 46.3087 39.1305C46.6581 39.1305 47.0074 39.0352 47.3886 38.8764C48.0556 38.5588 48.5002 37.9553 48.7861 37.066L49.7072 33.7945C49.7707 33.3816 49.8025 33.1593 49.8025 33.0958C49.8025 32.5558 49.6437 32.0476 49.2943 31.5394C48.9449 31.0313 48.4367 30.6819 47.738 30.4913C47.6744 30.4913 47.5474 30.4596 47.3886 30.4278C47.198 30.3325 47.071 30.3325 46.9757 30.3325C46.4357 30.3325 45.9275 30.4913 45.4193 30.8089C44.9112 31.1265 44.5618 31.6347 44.3712 32.3335L43.5136 35.5414C43.4819 35.7955 43.4501 36.0179 43.4501 36.2402Z" fill="#6A28FC"/>
</svg>
