<svg width="64" height="64" viewBox="0 0 64 64" fill="none" xmlns="http://www.w3.org/2000/svg">
<path d="M0 31.9699C0 31.2474 0.240828 30.6152 0.752587 30.1035C1.26435 29.6218 1.89652 29.381 2.5588 29.381H8.69991C9.39229 29.381 9.96425 29.6218 10.4459 30.1336C10.8975 30.6453 11.1383 31.2474 11.1383 31.9699C11.1383 32.6924 10.9276 33.2944 10.476 33.8062C10.0245 34.318 9.42239 34.5588 8.73001 34.5588H2.5889C1.89652 34.5588 1.29445 34.318 0.782691 33.8062C0.270932 33.2944 0 32.6924 0 31.9699ZM8.6096 52.8316C8.6096 52.1392 8.85042 51.5372 9.30198 50.9953L13.7272 46.6905C14.1787 46.2088 14.7808 45.9981 15.5033 45.9981C16.2258 45.9981 16.8278 46.2389 17.3095 46.6905C17.7912 47.1421 18.032 47.714 18.032 48.4064C18.032 49.1289 17.7912 49.7912 17.3095 50.333L13.0348 54.6077C11.8006 55.571 10.5663 55.571 9.33208 54.6077C8.85042 54.1261 8.6096 53.524 8.6096 52.8316ZM8.6096 11.1684C8.6096 10.476 8.85042 9.87394 9.30198 9.33208C9.90405 8.82032 10.5362 8.57949 11.2286 8.57949C11.8909 8.57949 12.4929 8.82032 13.0047 9.30198L17.3095 13.7272C17.7912 14.1787 18.032 14.7808 18.032 15.5033C18.032 16.2258 17.7912 16.8278 17.3095 17.3095C16.8278 17.7912 16.2258 18.032 15.5033 18.032C14.7808 18.032 14.1787 17.7912 13.7272 17.3095L9.33208 13.0047C8.85042 12.523 8.6096 11.8909 8.6096 11.1684ZM16.286 31.9699C16.286 29.1703 16.9784 26.5513 18.3932 24.143C19.8081 21.7347 21.7046 19.8081 24.143 18.3932C26.5814 16.9784 29.1703 16.286 31.9699 16.286C34.0771 16.286 36.0941 16.7074 38.0508 17.5503C39.9774 18.3932 41.6632 19.5071 43.048 20.9219C44.4628 22.3368 45.5767 23.9925 46.3895 25.9191C47.2023 27.8457 47.6237 29.8928 47.6237 32C47.6237 34.8297 46.9313 37.4487 45.5165 39.857C44.1016 42.2653 42.2051 44.1618 39.7968 45.5767C37.3885 46.9915 34.7695 47.6839 31.9398 47.6839C29.1101 47.6839 26.4911 46.9915 24.0828 45.5767C21.6745 44.1618 19.778 42.2653 18.3631 39.857C17.0085 37.4186 16.286 34.7996 16.286 31.9699ZM21.4036 31.9699C21.4036 34.92 22.4271 37.4186 24.5042 39.4958C26.5513 41.5729 29.0499 42.6265 32 42.6265C34.9501 42.6265 37.4487 41.5729 39.5259 39.4958C41.603 37.4186 42.6566 34.92 42.6566 31.9699C42.6566 29.08 41.603 26.6115 39.5259 24.5343C37.4487 22.4873 34.9501 21.4638 32 21.4638C29.08 21.4638 26.5814 22.4873 24.5343 24.5343C22.4271 26.6115 21.4036 29.08 21.4036 31.9699ZM29.4111 55.3904C29.4111 54.6679 29.6519 54.0658 30.1637 53.5842C30.6754 53.1025 31.2775 52.8617 31.9699 52.8617C32.6924 52.8617 33.3246 53.1025 33.8062 53.5842C34.2879 54.0658 34.5287 54.6679 34.5287 55.3904V61.381C34.5287 62.1035 34.2879 62.7357 33.7761 63.2474C33.2643 63.7592 32.6623 64 31.9699 64C31.2775 64 30.6453 63.7592 30.1637 63.2474C29.6519 62.7357 29.4111 62.1035 29.4111 61.381V55.3904ZM29.4111 8.73001V2.5889C29.4111 1.89652 29.6519 1.29445 30.1637 0.782691C30.6754 0.270932 31.2775 0 32 0C32.7225 0 33.2945 0.240828 33.8062 0.752587C34.318 1.26435 34.5588 1.86642 34.5588 2.5588V8.73001C34.5588 9.42239 34.318 9.99436 33.8062 10.476C33.2945 10.9577 32.6924 11.1684 32 11.1684C31.3076 11.1684 30.6754 10.9276 30.1938 10.476C29.7121 10.0245 29.4111 9.42239 29.4111 8.73001ZM46.0282 48.4064C46.0282 47.714 46.269 47.1421 46.7206 46.7206C47.1722 46.2389 47.7441 46.0282 48.4064 46.0282C49.1289 46.0282 49.7309 46.2691 50.2126 46.7206L54.6077 51.0254C55.0894 51.5372 55.3302 52.1693 55.3302 52.8617C55.3302 53.5541 55.0894 54.1562 54.6077 54.6378C53.4036 55.571 52.1994 55.571 50.9953 54.6378L46.7206 50.3631C46.269 49.8213 46.0282 49.1891 46.0282 48.4064ZM46.0282 15.5334C46.0282 14.7808 46.269 14.1787 46.7206 13.7573L50.9953 9.33208C51.5071 8.85042 52.1091 8.6096 52.7714 8.6096C53.4939 8.6096 54.096 8.85042 54.5776 9.36218C55.0894 9.87394 55.3302 10.476 55.3302 11.1684C55.3302 11.921 55.0894 12.5532 54.6077 13.0348L50.2126 17.3396C49.6707 17.8213 49.0687 18.0621 48.4064 18.0621C47.714 18.0621 47.1722 17.8213 46.7206 17.3396C46.269 16.858 46.0282 16.2559 46.0282 15.5334ZM52.8316 31.9699C52.8316 31.2474 53.0724 30.6453 53.5541 30.1035C54.0358 29.6218 54.6077 29.381 55.27 29.381H61.3509C62.0433 29.381 62.6453 29.6519 63.1571 30.1637C63.6689 30.6754 63.9398 31.2775 63.9398 31.9699C63.9398 32.6623 63.6689 33.2643 63.1571 33.7761C62.6453 34.2879 62.0433 34.5287 61.3509 34.5287H55.27C54.5776 34.5287 53.9755 34.2879 53.524 33.7761C53.0724 33.2643 52.8316 32.6924 52.8316 31.9699Z" fill="#6A28FC"/>
</svg>
